<svg id="Capa_1" data-name="Capa 1" xmlns="http://www.w3.org/2000/svg" viewBox="0 0 285.21 284.11"><defs><style>.cls-1{fill:#fff;}</style></defs><path class="cls-1" d="M1188.4,547.27c-37.28-20.59-77.53-24.16-117.89-26.19-32.76-1.66-65.53-.48-98,5.06-4.6.79-8.49,1.82-9.3,7.46-1.09,7.57.7,9.66,8.22,8.54,55.75-8.3,111.36-7.92,166.76,2.92,15.53,3,30.85,7,44.93,14.54a43.77,43.77,0,0,1,6.65,4.23c3.33,2.66,6.81,6.56,4,10.33-2.37,3.25-5.56-1.29-8.06-2.64-23.41-12.7-49.11-17-75-20.36-26.43-3.37-53-4.34-79.72-3.95-7.32.11-10.54,1.9-10.45,9.89s3.71,9.13,10.37,9c42.28-1.14,84.25,1.27,125.39,12.13A128.81,128.81,0,0,1,1188,591c3.29,1.89,6.68,3.93,6.83,8.44.05,1.74.3,3.75-1.27,4.89s-3.31-.07-4.77-1c-23.16-14.83-49.64-18.86-76-22.44-44-6-88.12-5.48-132.16.06-4.61.58-11.29-1-12.25,6.88-1.18,9.68,1.52,12.92,11.23,11.55a442.68,442.68,0,0,1,59.45-4.45c42.81-.18,85.39,2.81,126.51,16.35a87.7,87.7,0,0,1,19,9.05c4.22,2.63,6.91,6.27,3.82,10.89-3.31,5-6.11-.25-8.61-1.65-18.22-10.24-38.16-14.91-58.49-17.75-58.7-8.19-117.21-8.42-175.23,5.72a121.58,121.58,0,0,0-24,8.43c-4.78,2.3-7.17.89-8.3-3.82-7.11-29.65-4.88-58.67,6-87.07,1.64-4.3,5.54-5.79,9.39-7.29,20.08-7.84,41.13-11.62,62.4-13.79,52.38-5.35,104.54-4.66,156,7.93a124.44,124.44,0,0,1,31.92,12.14C1184.26,536.75,1188.37,539.92,1188.4,547.27Z" transform="translate(-909.68 -445.79)"/><path class="cls-1" d="M1046,701.49c23.3-.93,43.91,1.08,63.94,7.35,2.91.91,8.6.93,7.25,5.49-1.17,3.94-6.2,3.52-10,2.37-22.68-6.77-45.89-8.78-69.44-7.9A203.65,203.65,0,0,0,996,714.28a18.21,18.21,0,0,1-14.18-2.11c-25.06-14-43.35-34.31-56.75-59.45-3.37-6.31.17-8.35,4.86-10.41,18.44-8.06,38-11.76,57.76-14.28,49.37-6.31,98.6-5.46,147.43,5.13,13.2,2.87,26.06,6.71,37.87,13.51,3.73,2.15,7.58,4.4,4.58,9.48-2.9,4.91-6,1.11-8.85-.4-18.09-9.73-37.83-14-57.85-16.83-41.35-5.86-82.78-5.66-124.19-.41-3.81.48-9.52-.31-7.73,6.28,1.41,5.2.25,12.77,10.51,11.29,44.35-6.39,88.64-5.76,132.65,3.08,12.63,2.54,25.1,5.85,36.52,12.13,2.68,1.48,6.56,2.56,4.06,7-2.18,3.91-5.18,3.77-8.94,2-41.74-19.18-86.06-19.93-130.7-17.88-19.61.9-39.09,3.21-58,8.55-3.63,1-10.84-.3-9.26,7.43s7,10.88,14.86,8.63c26.69-7.64,54.13-10.2,81.6-9.62s55,2.89,81,13c3.61,1.4,11.53,1.38,9.56,7.28-2.19,6.59-8.29,3.38-13.39,1.35-19.52-7.76-40-11.13-60.89-11.48-14.92-.26-29.85-.17-44.77.11-3.29.06-8.92-1.86-8.87,4,0,5.52,2.7,10.07,9.79,9.79C1032.58,701.26,1040.49,701.49,1046,701.49Z" transform="translate(-909.68 -445.79)"/><path class="cls-1" d="M1162.85,499.1c-49.19-24-100-21-150.63-20a16.19,16.19,0,0,0-5.12,1.06c-3.48,1.27-5.22,4.15-4.51,7.58s4.16,2.81,6.61,2.53c19-2.21,38-2.27,57-1.25,33.63,1.8,67.23,4.49,98.53,18.76,5.32,2.43,10.71,4.88,12.36,11.38-80.53-29.56-161.71-27.05-244.24-6.89-1-.9.19-2.48,1.11-3.87,10.57-16,22.72-28.56,43.59-31.8,49.09-7.62,97.84-8.37,146.57,1.81a131.45,131.45,0,0,1,26.63,8.83C1155.57,489.37,1160,492.13,1162.85,499.1Z" transform="translate(-909.68 -445.79)"/><path class="cls-1" d="M1139.84,476.59c-55.28-17.79-109.36-16.76-164.82-6.66C1014.92,436.85,1097,436.56,1139.84,476.59Z" transform="translate(-909.68 -445.79)"/><path class="cls-1" d="M1083.35,726.18c-22.39,4.8-44.71,5.59-66.89-1.4A128.53,128.53,0,0,1,1083.35,726.18Z" transform="translate(-909.68 -445.79)"/></svg>